<?xml version="1.0" encoding="iso-8859-1"?>
<!-- Uploaded to: SVG Repo, www.svgrepo.com, Generator: SVG Repo Mixer Tools -->
<svg height="800px" width="800px" version="1.1" id="Layer_1" xmlns="http://www.w3.org/2000/svg" xmlns:xlink="http://www.w3.org/1999/xlink" 
	 viewBox="0 0 512 512" xml:space="preserve">
<path style="fill:#DBAD75;" d="M400.396,149.563c-8.671-1.266-16.716,4.716-17.99,13.377l-0.339,2.306H129.932l-0.339-2.305
	c-1.273-8.661-9.326-14.649-17.989-13.378c-8.661,1.273-14.65,9.328-13.377,17.989l48.655,330.901
	c1.144,7.78,7.819,13.546,15.683,13.546h186.87c7.864,0,14.539-5.766,15.684-13.546l48.655-330.901
	C415.046,158.891,409.056,150.837,400.396,149.563z"/>
<path style="fill:#EABD81;" d="M255.999,165.247H129.932l-0.339-2.305c-1.273-8.661-9.326-14.649-17.989-13.378
	c-8.661,1.273-14.65,9.328-13.377,17.989l48.655,330.901c1.144,7.78,7.819,13.546,15.683,13.546h93.435V165.247H255.999z"/>
<path style="fill:#DEE1E7;" d="M374.694,73.975c-1.041,0-2.08,0.033-3.11,0.099c-4.023-13.887-14.485-25.062-27.928-30.068
	C341.486,19.379,320.745,0,295.564,0c-16.348,0-30.826,8.17-39.564,20.64C247.262,8.17,232.784,0,216.436,0
	c-25.181,0-45.921,19.379-48.091,44.006c-13.442,5.006-23.905,16.181-27.928,30.068c-1.032-0.067-2.069-0.099-3.11-0.099
	c-26.62,0-48.278,21.657-48.278,48.278s21.658,48.278,48.278,48.278c8.754,0,15.852-7.097,15.852-15.852h205.683
	c0,8.754,7.097,15.852,15.852,15.852c26.62,0,48.278-21.657,48.278-48.278S401.314,73.975,374.694,73.975z"/>
<path style="fill:#FFFFFF;" d="M255.999,20.64C247.262,8.17,232.784,0,216.436,0c-25.181,0-45.921,19.379-48.091,44.006
	c-13.442,5.006-23.905,16.181-27.928,30.068c-1.032-0.067-2.069-0.099-3.11-0.099c-26.62,0-48.278,21.657-48.278,48.278
	s21.658,48.278,48.278,48.278c8.754,0,15.852-7.097,15.852-15.852h102.842L255.999,20.64z"/>
<path style="fill:#CFCDD6;" d="M288.426,149.394c-8.754,0-56.097,0-64.853,0c-8.755,0-15.852-7.097-15.852-15.852
	c0-26.62,21.658-48.278,48.278-48.278s48.278,21.657,48.278,48.278C304.277,142.297,297.18,149.394,288.426,149.394z"/>
<path style="fill:#DEE1E7;" d="M255.999,149.394c0,0-23.672,0-32.426,0c-8.754,0-15.852-7.097-15.852-15.852
	c0-26.62,21.658-48.278,48.278-48.278V149.394z"/>
<path style="fill:#BC2A46;" d="M400.396,149.563c-8.671-1.266-16.716,4.716-17.99,13.377l-0.339,2.306h-82.906V512h50.273
	c7.864,0,14.539-5.766,15.684-13.546l48.655-330.902C415.046,158.891,409.056,150.837,400.396,149.563z"/>
<path style="fill:#D62D46;" d="M129.932,165.247l-0.339-2.305c-1.273-8.661-9.326-14.649-17.989-13.378
	c-8.661,1.273-14.65,9.328-13.377,17.989l48.655,330.901c1.144,7.78,7.819,13.546,15.683,13.546h50.274V165.247H129.932z"/>
<path style="fill:#0E4151;" d="M407.119,138.826H104.88c-8.754,0-15.852,7.097-15.852,15.852v44.685
	c0,8.754,7.097,15.852,15.852,15.852h302.24c8.754,0,15.852-7.097,15.852-15.852v-44.685
	C422.971,145.924,415.874,138.826,407.119,138.826z"/>
<path style="fill:#144F66;" d="M255.999,138.826H104.88c-8.754,0-15.852,7.097-15.852,15.852v44.685
	c0,8.754,7.097,15.852,15.852,15.852h151.12V138.826z"/>
</svg>